<?xml version="1.0" standalone="no"?>
<!DOCTYPE svg PUBLIC "-//W3C//DTD SVG 20010904//EN"
 "http://www.w3.org/TR/2001/REC-SVG-20010904/DTD/svg10.dtd">
<svg version="1.0" xmlns="http://www.w3.org/2000/svg"
 width="1200.000000pt" height="1200.000000pt" viewBox="0 0 1200.000000 1200.000000"
 preserveAspectRatio="xMidYMid meet">

<g transform="translate(0.000000,1200.000000) scale(0.100000,-0.100000)"
fill="#000000" stroke="none">
<path d="M0 6000 l0 -6000 6000 0 6000 0 0 6000 0 6000 -6000 0 -6000 0 0
-6000z m5070 0 l0 -1500 -25 0 -25 0 0 1500 0 1500 25 0 25 0 0 -1500z m1472
730 c14 -11 147 -232 294 -492 159 -278 270 -464 272 -453 8 67 112 948 112
956 0 5 66 9 155 9 l156 0 -6 -32 c-3 -18 -44 -348 -90 -733 -47 -385 -87
-715 -90 -732 l-6 -33 -108 0 c-96 0 -112 3 -142 23 -27 18 -88 119 -298 490
-146 256 -266 465 -268 464 -3 -3 -113 -939 -113 -962 0 -13 -26 -15 -156 -15
l-156 0 6 38 c3 20 44 354 91 742 47 388 88 715 91 728 4 21 8 22 118 22 98 0
117 -3 138 -20z m1598 0 c0 -10 -16 -148 -35 -304 -19 -157 -35 -288 -35 -292
0 -15 110 3 131 22 12 10 107 138 210 284 237 332 207 312 450 308 l176 -3
-250 -326 c-138 -179 -268 -338 -289 -354 l-38 -28 28 -17 c15 -10 35 -26 45
-38 19 -20 333 -698 344 -740 l6 -24 -181 4 c-165 3 -183 5 -209 24 -21 16
-58 90 -155 309 -70 158 -136 294 -145 301 -11 8 -45 13 -85 14 -62 0 -68 -2
-73 -22 -5 -24 -75 -597 -75 -616 0 -9 -48 -12 -168 -12 -93 0 -171 2 -173 5
-3 3 172 1482 180 1523 1 1 78 2 171 2 162 0 170 -1 170 -20z m1752 6 c146
-28 237 -87 285 -184 25 -52 28 -67 28 -162 0 -99 -2 -110 -33 -172 -37 -76
-98 -135 -180 -177 l-54 -27 66 -33 c109 -53 156 -132 156 -261 0 -179 -108
-347 -272 -425 -136 -64 -157 -67 -542 -72 l-349 -5 6 38 c3 22 44 361 92 754
48 393 88 721 90 728 6 18 607 17 707 -2z m-5988 -32 c14 -14 16 -84 16 -627
l0 -612 100 -150 c116 -174 126 -211 63 -244 -16 -8 -321 -11 -1157 -11 -1123
0 -1136 0 -1156 20 -40 40 -28 78 75 233 l95 142 0 610 c0 536 2 613 16 633
l15 22 959 0 c858 0 960 -2 974 -16z"/>
<path d="M9496 6463 c-3 -16 -12 -91 -21 -168 -9 -77 -18 -153 -22 -169 l-5
-29 127 7 c136 7 182 20 228 64 52 50 73 184 39 252 -28 57 -67 70 -214 70
l-126 0 -6 -27z"/>
<path d="M9402 5688 c-12 -101 -22 -187 -22 -193 0 -6 56 -8 159 -5 l159 5 39
31 c51 41 75 92 80 173 5 81 -15 128 -67 153 -29 15 -62 18 -181 18 l-146 0
-21 -182z"/>
<path d="M2070 6050 l0 -550 865 0 865 0 0 550 0 550 -865 0 -865 0 0 -550z
m1012 480 c182 -56 321 -220 349 -412 36 -246 -129 -488 -376 -553 -200 -52
-424 35 -538 208 -186 283 -52 654 272 758 78 25 211 25 293 -1z"/>
<path d="M2803 6431 c-75 -27 -113 -52 -113 -74 0 -33 64 -84 120 -96 68 -15
94 -3 111 50 12 37 20 44 56 56 31 11 44 22 51 43 9 25 8 29 -11 34 -46 12
-163 5 -214 -13z"/>
<path d="M3130 6388 c0 -26 -49 -85 -84 -102 -20 -9 -36 -23 -36 -31 0 -27
-65 -83 -110 -95 -82 -22 -204 19 -263 90 -14 16 -28 30 -31 30 -11 0 -54 -96
-66 -149 -22 -93 7 -235 62 -304 l23 -28 2 38 c4 82 20 189 31 210 17 31 52
53 82 52 36 -1 179 -79 203 -110 63 -86 7 -244 -106 -293 l-51 -23 68 -13 c74
-14 149 -9 215 15 48 16 151 82 157 100 7 18 -41 85 -76 106 -38 24 -70 88
-77 154 -10 96 64 208 158 241 l34 11 -47 46 c-56 54 -88 74 -88 55z"/>
<path d="M3251 6173 c-69 -36 -97 -111 -66 -177 12 -26 26 -38 49 -44 21 -5
36 -19 48 -40 l16 -33 18 53 c28 87 18 249 -17 256 -8 1 -29 -6 -48 -15z"/>
<path d="M2740 5921 c0 -37 -5 -72 -11 -78 -7 -7 -1 -18 21 -36 39 -33 66 -25
97 29 41 71 27 101 -61 135 l-46 17 0 -67z"/>
<path d="M1980 5290 c-33 -49 -60 -92 -60 -95 0 -3 457 -5 1015 -5 558 0 1015
2 1015 5 0 3 -27 46 -60 95 l-61 90 -894 0 -894 0 -61 -90z"/>
</g>
</svg>
