<?xml version="1.0" standalone="no"?>
<!DOCTYPE svg PUBLIC "-//W3C//DTD SVG 20010904//EN"
 "http://www.w3.org/TR/2001/REC-SVG-20010904/DTD/svg10.dtd">
<svg version="1.0" xmlns="http://www.w3.org/2000/svg"
 width="1080.000000pt" height="1080.000000pt" viewBox="0 0 1080.000000 1080.000000"
 preserveAspectRatio="xMidYMid meet">

<g transform="translate(0.000000,1080.000000) scale(0.100000,-0.100000)"
fill="#000000" stroke="none">
<path d="M0 5400 l0 -5400 5400 0 5400 0 0 5400 0 5400 -5400 0 -5400 0 0
-5400z m4558 2 l2 -1352 -25 0 -25 0 0 1339 c0 737 3 1347 6 1356 4 9 14 15
23 13 15 -3 16 -117 19 -1356z m1340 651 c15 -16 133 -214 262 -441 129 -228
236 -410 237 -405 3 10 103 849 103 863 0 6 53 10 141 10 l141 0 -6 -37 c-3
-21 -40 -317 -81 -658 -41 -341 -78 -635 -81 -652 l-5 -33 -105 0 -106 0 -32
33 c-17 17 -135 215 -261 439 -126 223 -231 405 -232 404 -1 -1 -23 -179 -47
-396 -25 -217 -48 -414 -51 -437 l-6 -43 -140 0 c-76 0 -139 3 -139 8 0 14
161 1327 166 1350 4 21 9 22 110 22 102 0 106 -1 132 -27z m1437 0 c-7 -37
-65 -507 -65 -523 0 -20 98 -7 121 17 11 11 95 124 187 253 92 128 180 243
195 254 26 19 44 21 199 24 96 2 169 -1 167 -5 -2 -5 -106 -142 -231 -304
-133 -172 -240 -302 -258 -313 l-32 -18 31 -19 c16 -10 37 -29 46 -43 21 -32
305 -653 305 -667 0 -7 -56 -9 -171 -7 l-172 3 -20 27 c-11 14 -70 140 -132
278 -123 278 -124 279 -212 280 l-51 0 -6 -37 c-8 -50 -66 -525 -66 -540 0
-10 -38 -13 -155 -13 -150 0 -155 1 -155 21 0 11 36 315 80 676 44 360 80 661
80 669 0 11 30 14 160 14 l160 0 -5 -27z m1585 13 c128 -28 210 -80 253 -160
19 -35 22 -57 22 -151 0 -102 -2 -114 -29 -161 -36 -65 -86 -115 -155 -152
l-54 -30 49 -21 c130 -58 181 -183 139 -344 -20 -78 -45 -124 -99 -184 -61
-67 -181 -130 -284 -149 -105 -18 -652 -20 -652 -1 0 20 161 1341 165 1355 6
18 556 17 645 -2z m-5399 -33 c11 -13 15 -122 19 -577 l5 -561 83 -122 c85
-127 98 -165 66 -197 -14 -14 -123 -16 -1050 -16 -695 0 -1042 3 -1055 10 -13
8 -19 21 -19 45 0 27 20 65 90 171 l90 136 0 553 c0 517 1 555 18 564 11 7
312 10 878 11 789 0 863 -1 875 -17z"/>
<path d="M8560 5843 c0 -5 -9 -80 -20 -167 -11 -88 -20 -163 -20 -168 0 -15
215 -9 252 7 79 32 118 114 105 222 -7 63 -37 91 -112 103 -71 12 -205 13
-205 3z"/>
<path d="M8476 5149 c-9 -79 -19 -159 -23 -176 l-5 -33 129 0 c114 0 134 3
173 23 110 55 135 253 39 303 -24 12 -68 18 -164 22 l-131 5 -18 -144z"/>
<path d="M1860 5445 l0 -495 780 0 780 0 0 495 0 495 -780 0 -780 0 0 -495z
m872 444 c230 -49 393 -278 358 -503 -30 -200 -188 -358 -382 -385 -303 -42
-558 210 -517 509 36 253 291 432 541 379z"/>
<path d="M2551 5795 c-60 -17 -131 -54 -131 -68 0 -20 42 -65 74 -81 40 -19
100 -21 113 -3 6 6 15 26 20 42 7 22 19 33 44 41 31 10 70 56 59 68 -14 14
-130 14 -179 1z"/>
<path d="M2815 5738 c-9 -30 -43 -66 -77 -84 -16 -8 -28 -21 -28 -28 0 -19
-65 -74 -96 -82 -38 -10 -127 2 -163 21 -18 9 -49 31 -70 50 l-37 34 -16 -27
c-31 -52 -51 -143 -45 -201 8 -68 31 -137 57 -171 11 -14 18 -18 14 -8 -3 9 2
30 10 47 9 17 16 55 16 86 0 49 4 60 29 86 17 17 40 29 55 29 32 0 155 -63
182 -94 28 -31 38 -86 24 -134 -13 -51 -82 -129 -123 -141 l-32 -8 30 -13 c19
-7 62 -10 115 -8 91 5 140 23 212 80 l37 29 -23 34 c-13 19 -38 47 -56 62 -41
34 -69 95 -70 149 0 81 72 182 143 199 35 9 34 15 -5 51 -75 68 -75 68 -83 42z"/>
<path d="M2924 5554 c-81 -40 -87 -166 -9 -198 19 -8 39 -25 44 -38 8 -20 10
-17 25 31 19 64 20 115 5 177 -12 48 -19 51 -65 28z"/>
<path d="M2470 5328 c0 -30 -5 -59 -11 -65 -16 -16 26 -55 54 -51 28 4 69 65
65 97 -3 27 -39 57 -80 67 -28 6 -28 6 -28 -48z"/>
<path d="M1785 4763 c-27 -42 -51 -80 -53 -84 -2 -5 407 -9 908 -9 501 0 910
4 908 9 -1 4 -25 42 -53 84 l-50 77 -805 0 -805 0 -50 -77z"/>
</g>
</svg>
